<svg width="109" height="32" viewBox="0 0 109 32" fill="none" xmlns="http://www.w3.org/2000/svg">
<path d="M16.089 1.27712C13.9678 0.817771 10.1288 1.0314 8.79029 6.31229C7.45179 11.5932 7.93852 14.1722 6.96617 17.1198C5.72633 20.8776 0.886496 22.4904 0.762622 25.5951C0.640941 28.6656 3.43851 29.8942 5.99272 29.8942C8.54692 29.8942 11.5879 28.2981 12.683 26.9466C16.3882 22.3741 13.7781 17.3666 14.8721 17.8581C15.9662 18.3495 16.4847 22.2203 18.8865 27.0695C20.8323 31 24.8752 31 27.4009 31C29.7118 31 32.0599 30.0359 32.631 26.8238C33.4828 22.0343 28.7383 21.9115 30.1985 17.2438C31.7069 12.4211 35.0635 10.1199 35.7936 8.15524C36.5237 6.19054 35.6719 0.539945 30.5635 1.0314C25.4551 1.52285 24.6033 7.66378 22.7792 18.717C22.5216 20.281 18.1641 19.1974 18.8865 5.32939C19.0082 2.9961 17.7914 1.64461 16.089 1.27602V1.27712Z" fill="url(#paint0_linear_3_824)"/>
<path d="M16.089 1.27712C13.9678 0.817771 10.1288 1.0314 8.79029 6.31229C7.45179 11.5932 7.93852 14.1722 6.96617 17.1198C5.72633 20.8776 0.886496 22.4904 0.762622 25.5951C0.640941 28.6656 3.43851 29.8942 5.99272 29.8942C8.54692 29.8942 11.5879 28.2981 12.683 26.9466C16.3882 22.3741 13.7781 17.3666 14.8721 17.8581C15.9662 18.3495 16.4847 22.2203 18.8865 27.0695C20.8323 31 24.8752 31 27.4009 31C29.7118 31 32.0599 30.0359 32.631 26.8238C33.4828 22.0343 28.7383 21.9115 30.1985 17.2438C31.7069 12.4211 35.0635 10.1199 35.7936 8.15524C36.5237 6.19054 35.6719 0.539945 30.5635 1.0314C25.4551 1.52285 24.6033 7.66378 22.7792 18.717C22.5216 20.281 18.1641 19.1974 18.8865 5.32939C19.0082 2.9961 17.7914 1.64461 16.089 1.27602V1.27712Z" fill="url(#paint1_linear_3_824)"/>
<path d="M16.089 1.27712C13.9678 0.817771 10.1288 1.0314 8.79029 6.31229C7.45179 11.5932 7.93852 14.1722 6.96617 17.1198C5.72633 20.8776 0.886496 22.4904 0.762622 25.5951C0.640941 28.6656 3.43851 29.8942 5.99272 29.8942C8.54692 29.8942 11.5879 28.2981 12.683 26.9466C16.3882 22.3741 13.7781 17.3666 14.8721 17.8581C15.9662 18.3495 16.4847 22.2203 18.8865 27.0695C20.8323 31 24.8752 31 27.4009 31C29.7118 31 32.0599 30.0359 32.631 26.8238C33.4828 22.0343 28.7383 21.9115 30.1985 17.2438C31.7069 12.4211 35.0635 10.1199 35.7936 8.15524C36.3424 5.94785 35.6719 0.539945 30.5635 1.0314C25.4551 1.52285 24.6033 7.66378 22.7792 18.717C22.5216 20.281 18.1641 19.1974 18.8865 5.32939C19.0082 2.9961 17.7914 1.64461 16.089 1.27602V1.27712Z" fill="url(#paint2_linear_3_824)"/>
<path d="M47.0249 16.3581V22.9713H44.9479V11.822H47.0249V14.8302H47.0488C47.5263 12.5621 48.9826 11.5355 50.9403 11.5355C53.8291 11.5355 54.8318 13.4455 54.8318 15.8329V22.9713H52.7547V16.3581C52.7547 14.8302 52.1101 13.4216 50.0808 13.4216C48.1709 13.4216 47.0249 14.4959 47.0249 16.3581Z" fill="#E7E7E7"/>
<path d="M62.3333 13.3261C60.4234 13.3261 59.1581 14.3527 58.8716 16.4297H65.5564C65.4131 14.4482 64.3865 13.3261 62.3333 13.3261ZM62.4288 23.2339C58.991 23.2339 56.7468 21.133 56.7468 17.4802C56.7468 13.7558 59.0148 11.5355 62.405 11.5355C65.7235 11.5355 67.514 13.6603 67.514 16.7162C67.514 17.0744 67.514 17.528 67.4663 18.0532H58.8238C59.0387 20.2257 60.304 21.4195 62.4288 21.4195C64.4343 21.4195 65.2221 20.3929 65.6041 19.0798L67.4424 19.6289C66.8694 21.8253 65.2699 23.2339 62.4288 23.2339Z" fill="#E7E7E7"/>
<path d="M77.9116 16.3104C77.5058 14.5437 76.5269 13.4455 74.5693 13.4455C72.4683 13.4455 71.012 14.7586 71.012 17.4086C71.012 19.8915 72.4206 21.3478 74.6409 21.3478C76.8134 21.3478 77.5297 20.0348 77.9594 18.3397L79.941 18.7455C79.4396 21.5627 77.8161 23.2578 74.6648 23.2578C71.1791 23.2578 68.8872 21.133 68.8872 17.3847C68.8872 13.7081 71.2746 11.5355 74.5931 11.5355C77.84 11.5355 79.4157 13.159 79.9171 15.9523L77.9116 16.3104Z" fill="#E7E7E7"/>
<path d="M82.7626 19.6528V13.6126H81.1153V11.822H82.7626V8.74225H84.8396V11.822H88.3969V13.6126H84.8396V19.3663C84.8396 20.6077 85.3171 21.2523 86.5586 21.2523C87.1554 21.2523 87.6568 21.133 88.2537 20.9658L88.5163 22.8758C87.7523 23.1145 87.1554 23.2578 86.1289 23.2578C83.7892 23.2578 82.7626 21.7298 82.7626 19.6528Z" fill="#E7E7E7"/>
<path d="M94.1586 21.4672C96.2118 21.4672 97.4771 20.3451 97.4771 18.8172V18.2919H94.1586C92.75 18.2919 91.9861 18.8172 91.9861 19.796C91.9861 20.6555 92.5352 21.4672 94.1586 21.4672ZM97.4771 22.9713V20.1303H97.4533C96.9519 22.1834 95.4478 23.21 93.514 23.21C91.3414 23.21 89.9329 22.1596 89.9329 20.0586C89.9329 18.1009 91.1743 16.6446 93.8721 16.6446H97.4771V16.0478C97.4771 14.3049 96.8086 13.35 95.042 13.35C93.4424 13.35 92.559 14.0901 92.2487 15.9284L90.2671 15.6419C90.6491 13.0396 92.177 11.5833 95.1136 11.5833C98.2172 11.5833 99.5542 13.159 99.5542 16.0239V22.9713H97.4771Z" fill="#E7E7E7"/>
<path d="M104.206 22.9713H102.129V11.822H104.206V15.2599H104.254C104.708 12.6576 105.758 11.822 107.549 11.822H108.241V14.1139H107.239C105.138 14.1139 104.206 14.9257 104.206 17.0744V22.9713Z" fill="#E7E7E7"/>
<defs>
<linearGradient id="paint0_linear_3_824" x1="35.8637" y1="31" x2="0.757565" y2="1.00143" gradientUnits="userSpaceOnUse">
<stop stop-color="#FF9D0A"/>
<stop offset="1" stop-color="#FF0F00"/>
</linearGradient>
<linearGradient id="paint1_linear_3_824" x1="35.8637" y1="31" x2="0.757565" y2="1.00143" gradientUnits="userSpaceOnUse">
<stop stop-color="#FF9D0A" stop-opacity="0.03"/>
<stop offset="1" stop-color="#FF360A" stop-opacity="0.03"/>
</linearGradient>
<linearGradient id="paint2_linear_3_824" x1="35.8637" y1="30.9998" x2="0.75879" y2="1.00108" gradientUnits="userSpaceOnUse">
<stop stop-color="#FF9D0A" stop-opacity="0.03"/>
<stop offset="1" stop-color="#FF360A" stop-opacity="0.03"/>
</linearGradient>
</defs>
</svg>
